<?xml version="1.0" encoding="UTF-8"?>
<svg width="18px" height="22px" viewBox="0 0 18 22" version="1.1" xmlns="http://www.w3.org/2000/svg" xmlns:xlink="http://www.w3.org/1999/xlink">
    <!-- Generator: Sketch 62 (91390) - https://sketch.com -->
    <title>icon</title>
    <desc>Created with Sketch.</desc>
    <g id="Remote-Control-✅-✅" stroke="none" stroke-width="1" fill="none" fill-rule="evenodd">
        <g id="BYOD_RC_Control" transform="translate(-273.000000, -412.000000)" fill="#FFFFFF">
            <g id="Control-/-Shortcuts-/-icon+text" transform="translate(235.000000, 411.000000)">
                <g id="Basic-SDK-Iconset-/-off" transform="translate(35.000000, 0.000000)">
                    <path d="M15.55,5.4 C19.3226762,7.13488054 21.3976096,11.3275947 20.5297116,15.4622543 C19.6618136,19.5969139 16.0868415,22.5503729 11.95,22.5503729 C7.8131585,22.5503729 4.23818644,19.5969139 3.37028842,15.4622543 C2.5023904,11.3275947 4.57732376,7.13488054 8.35,5.4 L8.35,5.4 L8.35,8.0128 C5.94828372,9.63688617 4.87205052,12.6783428 5.70160695,15.4972119 C6.53116337,18.316081 9.07033633,20.2457578 11.95,20.2457578 C14.8296637,20.2457578 17.3688366,18.316081 18.1983931,15.4972119 C19.0279495,12.6783428 17.9517163,9.63688617 15.55,8.0128 L15.55,8.0128 Z M11.95,1.1496 C12.6955844,1.1496 13.3,1.76744705 13.3,2.5296 L13.3,10.8096 C13.3,11.571753 12.6955844,12.1896 11.95,12.1896 C11.2044156,12.1896 10.6,11.571753 10.6,10.8096 L10.6,2.5296 C10.6,1.76744705 11.2044156,1.1496 11.95,1.1496 Z" id="Combined-Shape"></path>
                </g>
            </g>
        </g>
    </g>
</svg>